<mxfile host="app.diagrams.net" agent="Mozilla/5.0 (Macintosh; Intel Mac OS X 10_14_6) AppleWebKit/605.1.15 (KHTML, like Gecko) Version/14.1.2 Safari/605.1.15" version="24.8.3">
  <diagram name="Page-1" id="JNNMsCdFVjWHwH4HeEpe">
    <mxGraphModel dx="954" dy="-557" grid="1" gridSize="10" guides="1" tooltips="1" connect="1" arrows="1" fold="1" page="1" pageScale="1" pageWidth="850" pageHeight="1100" math="0" shadow="0">
      <root>
        <mxCell id="0" />
        <mxCell id="1" parent="0" />
        <mxCell id="EblbpX1gaJVEb5riWeuY-34" value="S3 inventory" style="rounded=1;whiteSpace=wrap;html=1;" vertex="1" parent="1">
          <mxGeometry x="420" y="1620" width="120" height="60" as="geometry" />
        </mxCell>
        <mxCell id="EblbpX1gaJVEb5riWeuY-39" style="edgeStyle=orthogonalEdgeStyle;rounded=0;orthogonalLoop=1;jettySize=auto;html=1;entryX=0.5;entryY=0;entryDx=0;entryDy=0;" edge="1" parent="1" source="EblbpX1gaJVEb5riWeuY-35" target="EblbpX1gaJVEb5riWeuY-36">
          <mxGeometry relative="1" as="geometry" />
        </mxCell>
        <mxCell id="EblbpX1gaJVEb5riWeuY-35" value="S3 Select" style="rounded=1;whiteSpace=wrap;html=1;" vertex="1" parent="1">
          <mxGeometry x="430" y="1750" width="120" height="60" as="geometry" />
        </mxCell>
        <mxCell id="EblbpX1gaJVEb5riWeuY-40" style="edgeStyle=orthogonalEdgeStyle;rounded=0;orthogonalLoop=1;jettySize=auto;html=1;entryX=0.5;entryY=0;entryDx=0;entryDy=0;" edge="1" parent="1" source="EblbpX1gaJVEb5riWeuY-36" target="EblbpX1gaJVEb5riWeuY-37">
          <mxGeometry relative="1" as="geometry" />
        </mxCell>
        <mxCell id="EblbpX1gaJVEb5riWeuY-36" value="S3 batch operations" style="rounded=1;whiteSpace=wrap;html=1;" vertex="1" parent="1">
          <mxGeometry x="430" y="1880" width="120" height="60" as="geometry" />
        </mxCell>
        <mxCell id="EblbpX1gaJVEb5riWeuY-37" value="processed objects" style="rounded=1;whiteSpace=wrap;html=1;dashed=1;" vertex="1" parent="1">
          <mxGeometry x="430" y="2020" width="120" height="60" as="geometry" />
        </mxCell>
        <mxCell id="EblbpX1gaJVEb5riWeuY-38" style="edgeStyle=orthogonalEdgeStyle;rounded=0;orthogonalLoop=1;jettySize=auto;html=1;entryX=0.433;entryY=0.033;entryDx=0;entryDy=0;entryPerimeter=0;" edge="1" parent="1" source="EblbpX1gaJVEb5riWeuY-34" target="EblbpX1gaJVEb5riWeuY-35">
          <mxGeometry relative="1" as="geometry" />
        </mxCell>
        <mxCell id="EblbpX1gaJVEb5riWeuY-41" value="" style="sketch=0;aspect=fixed;pointerEvents=1;shadow=0;dashed=0;html=1;strokeColor=none;labelPosition=center;verticalLabelPosition=bottom;verticalAlign=top;align=center;fillColor=#00188D;shape=mxgraph.azure.file" vertex="1" parent="1">
          <mxGeometry x="430" y="1700.64" width="37" height="39.36" as="geometry" />
        </mxCell>
        <mxCell id="EblbpX1gaJVEb5riWeuY-43" value="Objects list report" style="text;html=1;align=center;verticalAlign=middle;resizable=0;points=[];autosize=1;strokeColor=none;fillColor=none;" vertex="1" parent="1">
          <mxGeometry x="472.5" y="1705.32" width="120" height="30" as="geometry" />
        </mxCell>
        <mxCell id="EblbpX1gaJVEb5riWeuY-44" value="Filter" style="outlineConnect=0;dashed=0;verticalLabelPosition=bottom;verticalAlign=top;align=center;html=1;shape=mxgraph.aws3.filtering_rule;fillColor=#759C3E;gradientColor=none;" vertex="1" parent="1">
          <mxGeometry x="580" y="1758" width="50" height="52" as="geometry" />
        </mxCell>
        <mxCell id="EblbpX1gaJVEb5riWeuY-45" value="" style="sketch=0;aspect=fixed;pointerEvents=1;shadow=0;dashed=0;html=1;strokeColor=none;labelPosition=center;verticalLabelPosition=bottom;verticalAlign=top;align=center;fillColor=#00188D;shape=mxgraph.azure.file" vertex="1" parent="1">
          <mxGeometry x="435.5" y="1820" width="37" height="39.36" as="geometry" />
        </mxCell>
        <mxCell id="EblbpX1gaJVEb5riWeuY-47" value="Filtered list" style="text;html=1;align=center;verticalAlign=middle;resizable=0;points=[];autosize=1;strokeColor=none;fillColor=none;" vertex="1" parent="1">
          <mxGeometry x="482.5" y="1829.36" width="80" height="30" as="geometry" />
        </mxCell>
        <mxCell id="EblbpX1gaJVEb5riWeuY-49" style="edgeStyle=orthogonalEdgeStyle;rounded=0;orthogonalLoop=1;jettySize=auto;html=1;entryX=0;entryY=0.5;entryDx=0;entryDy=0;" edge="1" parent="1" source="EblbpX1gaJVEb5riWeuY-48" target="EblbpX1gaJVEb5riWeuY-36">
          <mxGeometry relative="1" as="geometry" />
        </mxCell>
        <mxCell id="EblbpX1gaJVEb5riWeuY-48" value="" style="shape=actor;whiteSpace=wrap;html=1;" vertex="1" parent="1">
          <mxGeometry x="185" y="1880" width="40" height="60" as="geometry" />
        </mxCell>
        <mxCell id="EblbpX1gaJVEb5riWeuY-50" value="Operations&lt;div&gt;+&lt;/div&gt;&lt;div&gt;Parameters&lt;/div&gt;" style="text;html=1;align=center;verticalAlign=middle;resizable=0;points=[];autosize=1;strokeColor=none;fillColor=none;" vertex="1" parent="1">
          <mxGeometry x="265" y="1853" width="90" height="60" as="geometry" />
        </mxCell>
        <mxCell id="EblbpX1gaJVEb5riWeuY-51" value="S3 Batch Operations" style="text;html=1;align=center;verticalAlign=middle;resizable=0;points=[];autosize=1;strokeColor=none;fillColor=none;fontSize=16;" vertex="1" parent="1">
          <mxGeometry x="275" y="1568" width="170" height="30" as="geometry" />
        </mxCell>
      </root>
    </mxGraphModel>
  </diagram>
</mxfile>
